<svg width="2974" height="568" viewBox="0 0 2974 568" fill="none" xmlns="http://www.w3.org/2000/svg">
<path d="M1209.08 77C1224.08 77 1233.74 92.9021 1226.83 106.216L1106.25 338.467C1104.77 341.314 1104 344.475 1104 347.682V474C1104 485.046 1095.05 494 1084 494H1055.6C1044.55 494 1035.6 485.046 1035.6 474V347.701C1035.6 344.481 1034.82 341.309 1033.33 338.454L912.251 106.247C905.308 92.9321 914.968 77 929.985 77H960.526C968.264 77 975.308 81.4637 978.611 88.461L1051.71 243.295C1058.93 258.576 1080.67 258.576 1087.89 243.295L1160.99 88.461C1164.29 81.4637 1171.34 77 1179.07 77H1209.08Z" fill="white"/>
<path d="M1545.68 77C1556.73 77 1565.68 85.9543 1565.68 97V112.8C1565.68 123.846 1556.73 132.8 1545.68 132.8H1474.68C1463.64 132.8 1454.68 141.754 1454.68 152.8V474C1454.68 485.046 1445.73 494 1434.68 494H1406.28C1395.24 494 1386.28 485.046 1386.28 474V152.8C1386.28 141.754 1377.33 132.8 1366.28 132.8H1294.68C1283.64 132.8 1274.68 123.846 1274.68 112.8V97C1274.68 85.9543 1283.64 77 1294.68 77H1545.68Z" fill="white"/>
<path d="M1715.35 407.4C1715.35 418.446 1724.31 427.4 1735.35 427.4H1833.35C1844.4 427.4 1853.35 436.354 1853.35 447.4V474C1853.35 485.046 1844.4 494 1833.35 494H1651.35C1640.31 494 1631.35 485.046 1631.35 474V95.2C1631.35 84.1543 1640.31 75.2 1651.35 75.2H1695.35C1706.4 75.2 1715.35 84.1543 1715.35 95.2V407.4Z" fill="#A20000"/>
<path d="M1939.14 122C1924.34 122 1911.94 117.4 1901.94 108.2C1892.34 98.6 1887.54 86.8 1887.54 72.8C1887.54 58.8 1892.34 47.2 1901.94 38C1911.94 28.4 1924.34 23.6 1939.14 23.6C1953.94 23.6 1966.14 28.4 1975.74 38C1985.74 47.2 1990.74 58.8 1990.74 72.8C1990.74 86.8 1985.74 98.6 1975.74 108.2C1966.14 117.4 1953.94 122 1939.14 122ZM1960.54 161.6C1971.59 161.6 1980.54 170.554 1980.54 181.6V474C1980.54 485.046 1971.59 494 1960.54 494H1916.54C1905.5 494 1896.54 485.046 1896.54 474V181.6C1896.54 170.554 1905.5 161.6 1916.54 161.6H1960.54Z" fill="#A20000"/>
<path d="M2215.94 156.8C2255.54 156.8 2287.54 169.4 2311.94 194.6C2336.34 219.4 2348.54 254.2 2348.54 299V474C2348.54 485.046 2339.58 494 2328.54 494H2284.54C2273.49 494 2264.54 485.046 2264.54 474V310.4C2264.54 284 2257.94 263.8 2244.74 249.8C2231.54 235.4 2213.54 228.2 2190.74 228.2C2167.54 228.2 2149.14 235.4 2135.54 249.8C2122.34 263.8 2115.74 284 2115.74 310.4V474C2115.74 485.046 2106.78 494 2095.74 494H2051.74C2040.69 494 2031.74 485.046 2031.74 474V181.6C2031.74 170.554 2040.69 161.6 2051.74 161.6H2105.16C2111 161.6 2115.74 166.335 2115.74 172.176V172.176C2115.74 182.246 2129.63 187.523 2137.74 181.55C2144.04 176.904 2150.91 172.854 2158.34 169.4C2175.94 161 2195.14 156.8 2215.94 156.8Z" fill="#A20000"/>
<path d="M2598.44 494C2592.35 494 2586.59 491.225 2582.79 486.462L2511.64 397.144C2499.85 382.34 2476 390.679 2476 409.605V474C2476 485.046 2467.05 494 2456 494H2412C2400.95 494 2392 485.046 2392 474V70C2392 58.9543 2400.95 50 2412 50H2456C2467.05 50 2476 58.9543 2476 70V245.105C2476 264.063 2499.92 272.383 2511.68 257.518L2581.59 169.188C2585.39 164.395 2591.16 161.6 2597.28 161.6H2652.63C2669.83 161.6 2679.01 181.868 2667.67 194.793L2562.07 315.105C2555.41 322.697 2555.45 334.065 2562.17 341.605L2668.31 460.693C2679.8 473.585 2670.65 494 2653.38 494H2598.44Z" fill="#A20000"/>
<path d="M2843.2 494C2816 494 2791.6 489.2 2770 479.6C2748.4 469.6 2731.2 456.2 2718.4 439.4C2710.37 428.523 2704.69 416.892 2701.36 404.507C2698.37 393.395 2707.7 383.6 2719.21 383.6H2764.94C2775.03 383.6 2783.07 391.489 2787.97 400.305C2791.1 405.947 2795.51 410.978 2801.2 415.4C2812.4 423.8 2826.2 428 2842.6 428C2858.6 428 2871 424.8 2879.8 418.4C2889 412 2893.6 403.8 2893.6 393.8C2893.6 383 2888 375 2876.8 369.8C2866 364.2 2848.6 358.2 2824.6 351.8C2799.8 345.8 2779.4 339.6 2763.4 333.2C2747.8 326.8 2734.2 317 2722.6 303.8C2711.4 290.6 2705.8 272.8 2705.8 250.4C2705.8 232 2711 215.2 2721.4 200C2732.2 184.8 2747.4 172.8 2767 164C2787 155.2 2810.4 150.8 2837.2 150.8C2876.8 150.8 2908.4 160.8 2932 180.8C2950.39 196.073 2962.34 215.597 2967.86 239.372C2970.48 250.679 2961.13 260.6 2949.52 260.6H2908.86C2898.52 260.6 2890.47 252.29 2885.63 243.149C2882.82 237.843 2878.88 233.26 2873.8 229.4C2864.2 221.4 2851.2 217.4 2834.8 217.4C2819.6 217.4 2807.8 220.2 2799.4 225.8C2791.4 231.4 2787.4 239.2 2787.4 249.2C2787.4 260.4 2793 269 2804.2 275C2815.4 280.6 2832.8 286.4 2856.4 292.4C2880.4 298.4 2900.2 304.6 2915.8 311C2931.4 317.4 2944.8 327.4 2956 341C2967.6 354.2 2973.6 371.8 2974 393.8C2974 413 2968.6 430.2 2957.8 445.4C2947.4 460.6 2932.2 472.6 2912.2 481.4C2892.6 489.8 2869.6 494 2843.2 494Z" fill="#A20000"/>
<path d="M511.417 236.799C537.679 236.799 559.167 258.264 559.167 284.499C559.167 310.734 537.679 332.199 511.417 332.199H487.542C466.704 332.199 448.872 318.686 442.395 299.999H472C480.8 299.999 488 293.024 488 284.499C488 275.974 480.8 268.999 472 268.999H442.395C448.872 250.312 466.704 236.799 487.542 236.799H511.417Z" fill="#A20000"/>
<path d="M312.458 236.799C333.296 236.799 351.128 250.312 357.605 268.999H328C319.2 268.999 312 275.974 312 284.499C312 293.024 319.2 299.999 328 299.999H357.605C351.128 318.686 333.296 332.199 312.458 332.199H288.583C262.321 332.199 240.833 310.734 240.833 284.499C240.833 258.264 262.321 236.799 288.583 236.799H312.458Z" fill="#A20000"/>
<path fill-rule="evenodd" clip-rule="evenodd" d="M633.851 0.950195C725.612 0.950393 800 75.3377 800 167.1V400.9C800 492.662 725.612 567.05 633.851 567.05H166.149C74.3876 567.05 9.89588e-05 492.662 0 400.9V167.1C0 75.3377 74.3875 0.950377 166.149 0.950195H633.851ZM209 284.499C209 240.774 244.812 204.999 288.583 204.999H312.458C350.923 204.999 383.243 232.627 390.513 268.999H409.487C416.757 232.627 449.077 204.999 487.542 204.999H511.417C555.188 204.999 591 240.774 591 284.499C591 328.224 555.188 363.999 511.417 363.999H487.542C449.077 363.999 416.757 336.371 409.487 299.999H390.513C383.243 336.371 350.923 363.999 312.458 363.999H288.583C244.812 363.999 209 328.224 209 284.499Z" fill="#A20000"/>
<path fill-rule="evenodd" clip-rule="evenodd" d="M288.583 204.999C244.812 204.999 209 240.774 209 284.499C209 328.224 244.812 363.999 288.583 363.999H312.458C350.923 363.999 383.243 336.371 390.513 299.999H409.487C416.757 336.371 449.077 363.999 487.542 363.999H511.417C555.188 363.999 591 328.224 591 284.499C591 240.774 555.188 204.999 511.417 204.999H487.542C449.077 204.999 416.757 232.627 409.487 268.999H390.513C383.243 232.627 350.923 204.999 312.458 204.999H288.583ZM357.605 268.999C351.128 250.312 333.296 236.799 312.458 236.799H288.583C262.321 236.799 240.833 258.264 240.833 284.499C240.833 310.734 262.321 332.199 288.583 332.199H312.458C333.296 332.199 351.128 318.686 357.605 299.999H328C319.2 299.999 312 293.024 312 284.499C312 275.974 319.2 268.999 328 268.999H357.605ZM559.167 284.499C559.167 258.264 537.679 236.799 511.417 236.799H487.542C466.704 236.799 448.872 250.312 442.395 268.999H472C480.8 268.999 488 275.974 488 284.499C488 293.024 480.8 299.999 472 299.999H442.395C448.872 318.686 466.704 332.199 487.542 332.199H511.417C537.679 332.199 559.167 310.734 559.167 284.499Z" fill="white"/>
</svg>
